<svg version="1.1" id="Layer_1" xmlns="http://www.w3.org/2000/svg" xmlns:xlink="http://www.w3.org/1999/xlink" x="0px" y="0px"
	 width="100%" viewBox="0 0 2000 2250" enable-background="new 0 0 2000 2250" xml:space="preserve">
<path fill="#8B3C7F" opacity="1.000000" stroke="none" 
	d="
M1.999999,1200.000000 
	C2.000000,1196.571289 2.000000,1193.142578 2.643517,1188.634033 
	C5.137693,1185.703491 7.317119,1184.080200 8.782186,1181.962646 
	C15.187392,1172.704712 22.541138,1164.512207 30.837166,1156.738281 
	C42.957535,1145.380493 49.160507,1131.290894 43.620399,1113.793335 
	C41.263535,1106.349365 40.948082,1098.259277 39.655724,1089.994629 
	C39.437710,1088.906006 39.125275,1088.369141 38.549446,1086.991211 
	C37.558491,1061.027466 38.719666,1036.218262 46.064934,1012.002869 
	C48.965904,1002.439087 51.341755,992.965637 59.336914,985.742981 
	C67.072624,978.754700 72.266121,969.736145 75.428482,959.679688 
	C79.598808,946.417908 84.107895,933.252014 87.846779,919.870422 
	C89.328377,914.567688 88.932396,908.766418 89.760986,903.247681 
	C90.539619,898.061584 91.154930,892.704590 92.976128,887.848022 
	C99.044960,871.664185 105.448235,855.598633 112.084465,839.637878 
	C115.126762,832.320862 118.854294,825.270874 122.572411,818.259583 
	C124.736504,814.178711 127.871002,810.600220 129.924286,806.474915 
	C138.486420,789.272217 143.494019,770.242188 156.387558,755.268616 
	C156.805023,754.783752 157.098114,754.105774 157.228287,753.472412 
	C159.435867,742.731018 165.667984,733.970703 171.564148,725.148132 
	C176.836609,717.258850 180.235840,708.860840 182.354218,699.615173 
	C184.471405,690.374756 186.206207,681.064758 192.213730,672.842346 
	C195.139999,668.837158 195.690033,661.976746 195.006622,656.708374 
	C193.904953,648.215820 191.205566,639.872742 188.616043,631.644287 
	C184.563141,618.765869 182.488312,605.737488 184.339813,592.291565 
	C184.830460,588.728333 185.765625,585.139648 187.090683,581.798157 
	C189.156448,576.588684 192.074570,571.708191 194.018982,566.461365 
	C198.658554,553.941895 207.304703,545.389221 219.063187,539.530029 
	C235.343552,531.417603 252.706192,526.971436 270.587219,524.608032 
	C283.268646,522.931946 292.984467,516.530457 301.116028,507.287964 
	C307.654083,499.856659 313.730286,492.021118 320.167908,484.498901 
	C334.656250,467.569641 349.093872,450.592651 363.858337,433.906006 
	C370.027618,426.933563 376.380981,419.884796 383.689026,414.207306 
	C400.636261,401.041382 415.656647,386.130127 428.646454,369.097229 
	C429.846924,367.523071 431.364685,366.165131 432.855408,364.842346 
	C441.048828,357.571869 449.700226,350.761322 457.403503,343.007172 
	C470.378448,329.946564 483.760956,317.632996 500.529724,309.458954 
	C506.020081,306.782654 510.238770,302.398102 512.293335,296.418213 
	C516.389832,284.495239 520.405823,272.544373 524.411011,260.590240 
	C526.905518,253.145096 528.213989,244.709885 538.857544,244.548599 
	C539.660767,244.536407 540.448059,243.473770 540.318359,243.567535 
	C539.693726,239.277267 538.028809,235.347061 538.901794,232.098923 
	C540.250366,227.081055 543.334595,222.529617 546.218811,217.457977 
	C547.285767,215.620056 547.816711,214.104538 548.986694,212.442352 
	C555.168518,212.522766 554.941711,209.851624 552.970398,205.573639 
	C549.206543,205.814514 545.744812,206.036057 541.744873,206.489105 
	C540.118225,207.138641 539.029907,207.556671 537.849121,207.320801 
	C537.789673,205.788116 537.822571,204.909332 538.154175,203.510986 
	C538.781189,201.844879 539.109497,200.698349 539.780029,198.891678 
	C542.984924,194.244095 546.961121,193.341431 551.585693,193.918304 
	C559.492371,194.904572 561.642517,201.466354 564.304932,208.074966 
	C567.684326,207.155960 570.471497,206.187149 573.339783,205.654495 
	C585.731262,203.353333 598.214172,200.920181 610.808167,203.276413 
	C620.931091,205.170319 631.006897,207.578888 640.861572,210.559341 
	C648.666199,212.919800 655.725159,212.308319 663.169312,209.281357 
	C687.165649,199.523895 711.401306,190.609924 737.023926,185.691437 
	C752.997803,182.625107 769.294983,179.491058 784.280823,173.479797 
	C802.399719,166.211761 820.935364,161.787262 839.914490,158.283905 
	C847.906555,156.808640 854.590149,152.807022 860.389282,146.985123 
	C864.912231,142.444397 870.284668,139.632141 877.282654,140.214722 
	C886.822266,141.008911 896.430420,141.392899 906.002197,141.292191 
	C920.615723,141.138458 935.234924,139.841553 949.829529,140.134720 
	C960.387756,140.346832 970.928650,142.809662 980.755737,136.720749 
	C982.076599,135.902390 983.975403,135.811295 985.619751,135.752960 
	C1000.232300,135.234543 1014.846191,134.739456 1029.462769,134.354218 
	C1049.587524,133.823761 1069.215454,136.752182 1088.366821,142.976547 
	C1090.555298,143.687820 1092.895020,144.069489 1095.194336,144.282806 
	C1113.027100,145.937408 1130.687622,149.824005 1148.762207,148.452133 
	C1150.046265,148.354675 1151.367920,148.948456 1152.685913,149.070847 
	C1162.267456,149.960587 1171.862183,150.720230 1181.432983,151.710098 
	C1187.017822,152.287720 1192.746948,152.585114 1198.093140,154.117615 
	C1208.439941,157.083557 1218.819702,158.607819 1229.598511,158.513077 
	C1234.074463,158.473724 1238.817871,159.640869 1243.005859,161.333069 
	C1257.868652,167.338593 1273.272339,170.679047 1289.145874,172.492401 
	C1293.935425,173.039566 1298.934570,174.443848 1303.159668,176.716095 
	C1313.918945,182.502350 1325.056274,186.162674 1337.361572,186.459778 
	C1341.233154,186.553253 1345.318481,187.437576 1348.877197,188.961304 
	C1357.999268,192.867111 1366.684326,197.845108 1375.927368,201.397675 
	C1382.001831,203.732407 1388.730835,204.391083 1395.186768,205.701233 
	C1409.991211,208.705597 1424.044922,213.356201 1436.271851,222.720947 
	C1441.499634,226.724976 1447.263794,230.047516 1452.890259,233.507416 
	C1459.921875,237.831436 1467.187744,241.783081 1474.127319,246.245819 
	C1485.043213,253.265701 1495.717773,260.484009 1508.287476,264.641418 
	C1514.425171,266.671448 1519.940308,270.792694 1525.484253,274.360565 
	C1534.702148,280.292847 1543.866821,286.331696 1552.774780,292.715088 
	C1562.198364,299.467834 1573.532959,302.904785 1582.301270,310.905243 
	C1593.092163,320.751129 1604.537720,329.884308 1615.793701,339.213013 
	C1619.887207,342.605560 1624.068359,345.956757 1628.537109,348.814545 
	C1633.328003,351.878418 1637.454712,354.925873 1639.673340,360.719055 
	C1640.973511,364.114014 1644.549072,367.071350 1647.769409,369.227081 
	C1669.637451,383.865723 1691.111572,398.930939 1709.104004,418.419617 
	C1711.247925,420.741760 1714.322632,422.692963 1717.334961,423.632233 
	C1725.879639,426.296478 1732.835571,431.121490 1738.949707,437.471771 
	C1749.343628,448.266998 1759.654663,459.149963 1770.310547,469.682404 
	C1777.115479,476.408356 1781.943115,484.281555 1785.147827,493.097015 
	C1795.534546,521.669250 1810.191772,548.101440 1825.493896,574.202515 
	C1828.839600,579.909424 1833.703613,584.746094 1836.887451,590.524109 
	C1843.783813,603.039795 1849.561768,616.183411 1856.680786,628.562073 
	C1867.181030,646.820618 1875.801514,665.785889 1882.380127,685.804382 
	C1886.212524,697.465698 1890.869873,708.911133 1895.940552,720.098083 
	C1905.164795,740.448914 1911.843750,761.672974 1918.445923,782.927673 
	C1923.571289,799.427856 1928.010742,816.142212 1933.212769,832.616821 
	C1934.562134,836.889893 1937.075195,841.098083 1940.016602,844.504822 
	C1946.820801,852.385803 1949.430298,861.119934 1947.703857,871.323730 
	C1947.097168,874.909668 1946.207642,878.635742 1946.600586,882.169617 
	C1948.176147,896.339661 1949.226685,910.675720 1952.296265,924.546448 
	C1956.788208,944.845093 1958.881348,965.224060 1958.625488,986.410522 
	C1958.730713,987.563171 1959.096436,988.079346 1959.683838,989.224731 
	C1960.932373,994.411987 1961.750366,998.994019 1963.497803,1003.188904 
	C1968.784424,1015.880981 1979.023071,1025.064453 1987.187866,1035.720825 
	C1990.964844,1040.650635 1994.664307,1045.643188 1998.574097,1050.465088 
	C1999.277466,1051.332397 2000.836182,1051.506104 2002.000000,1052.000000 
	C2002.000000,1057.400024 2002.000000,1062.800049 2001.188843,1068.833496 
	C1995.851562,1077.342773 1996.178833,1084.869141 2002.000000,1092.000000 
	C2002.000000,1096.741089 2002.000000,1101.482300 2001.291870,1106.970215 
	C1993.196167,1114.702637 1985.526611,1121.423340 1978.580811,1128.823608 
	C1976.282715,1131.271973 1975.532349,1135.389038 1974.622803,1138.885986 
	C1971.522949,1150.804077 1968.622803,1162.775146 1965.739380,1174.748291 
	C1964.496826,1179.908569 1962.558960,1185.117554 1962.524048,1190.315063 
	C1962.372681,1212.819946 1957.805298,1234.541748 1952.327393,1256.200806 
	C1949.251221,1268.363525 1946.938843,1280.719604 1944.226562,1293.246338 
	C1958.353882,1302.206055 1970.180908,1312.411865 1978.947998,1325.782837 
	C1969.390259,1333.454102 1968.791504,1333.428833 1959.633789,1328.540405 
	C1954.971313,1326.051392 1950.175293,1323.769409 1945.294800,1321.742554 
	C1937.831299,1318.643066 1935.635498,1319.972290 1933.402710,1327.975586 
	C1929.209961,1343.005371 1925.766235,1358.315674 1920.463745,1372.948730 
	C1910.829590,1399.536011 1900.301514,1425.786499 1886.969849,1450.858032 
	C1881.545410,1461.059082 1878.310913,1472.403809 1873.213989,1482.803589 
	C1859.606934,1510.567261 1844.913452,1537.812378 1831.823486,1565.811279 
	C1820.008301,1591.083496 1806.242432,1614.019165 1784.511841,1632.732300 
	C1759.324341,1654.421875 1737.146118,1679.493042 1715.896973,1705.195801 
	C1713.996460,1707.494629 1711.939575,1709.782104 1709.565186,1711.551025 
	C1698.654053,1719.679443 1691.511353,1732.194458 1678.654297,1738.057739 
	C1677.828735,1738.434448 1677.273926,1739.477783 1676.678711,1740.274902 
	C1672.098999,1746.407471 1667.747070,1752.724121 1662.914429,1758.649414 
	C1658.571045,1763.974976 1656.474121,1769.079956 1660.492432,1775.655518 
	C1661.754028,1777.720093 1661.760986,1780.829102 1661.616821,1783.419556 
	C1661.272339,1789.615967 1658.060425,1792.832520 1651.944214,1792.075195 
	C1648.245361,1791.617065 1644.483643,1789.645874 1641.295654,1787.531982 
	C1635.866089,1783.931641 1630.975586,1783.678223 1625.704468,1787.659668 
	C1612.421997,1797.692383 1598.781860,1806.977417 1583.219604,1813.493408 
	C1576.729614,1816.210693 1571.792725,1822.447144 1565.800293,1826.576660 
	C1541.721558,1843.170410 1517.576416,1859.671143 1493.266113,1875.922607 
	C1489.552002,1878.405273 1487.847534,1880.820312 1487.499878,1885.365112 
	C1486.706055,1895.742554 1480.841553,1899.975830 1470.348511,1897.624390 
	C1455.343018,1894.261719 1441.425415,1896.607056 1427.967896,1903.681641 
	C1422.677856,1906.462524 1417.011963,1908.521484 1411.559937,1911.003052 
	C1408.853882,1912.234497 1405.723267,1913.142822 1403.687744,1915.124878 
	C1397.267090,1921.376587 1389.407837,1924.907593 1381.213257,1927.731689 
	C1366.490479,1932.805420 1351.634521,1937.491699 1336.856567,1942.407471 
	C1334.685669,1943.129639 1332.462769,1943.952637 1330.561523,1945.187256 
	C1318.552856,1952.985596 1306.493408,1960.719971 1294.750854,1968.905884 
	C1290.783447,1971.671753 1287.003296,1975.237915 1284.362183,1979.245361 
	C1280.736328,1984.747192 1276.276855,1987.542603 1269.813232,1988.366455 
	C1253.065063,1990.501099 1245.833252,2002.354736 1251.133911,2018.420044 
	C1252.278809,2021.890747 1253.742920,2025.276611 1254.620972,2028.810547 
	C1256.238281,2035.320312 1253.149536,2042.541382 1248.007202,2045.027710 
	C1242.770264,2047.559326 1236.238403,2046.332642 1232.125732,2040.686768 
	C1227.275024,2034.027588 1223.597900,2026.526978 1219.073730,2019.612305 
	C1215.300171,2013.844971 1211.758667,2007.632935 1206.825928,2002.985229 
	C1199.238892,1995.836548 1188.559937,1992.359985 1175.808594,2001.285400 
	C1166.138794,2008.054199 1156.094849,2012.083374 1144.031616,2009.787964 
	C1140.052490,2009.030884 1136.133057,2009.665039 1133.932129,2014.218994 
	C1131.938599,2018.343628 1133.015015,2021.651855 1134.905640,2025.492310 
	C1137.032593,2029.813110 1138.957764,2034.570679 1139.409302,2039.287720 
	C1139.906128,2044.478271 1138.787109,2049.860596 1138.078491,2055.119873 
	C1137.239380,2061.348145 1133.537109,2065.442139 1127.569336,2067.161865 
	C1119.019897,2069.625488 1102.838013,2061.146240 1099.501099,2052.700195 
	C1097.118530,2046.669067 1094.691406,2040.655396 1092.227661,2034.492798 
	C1088.245239,2035.511353 1085.325806,2036.110596 1082.502808,2037.011475 
	C1077.123291,2038.728149 1071.801636,2040.625854 1066.450684,2042.433105 
	C1054.792236,2046.370850 1048.587769,2043.886719 1043.246826,2032.839722 
	C1040.643311,2027.454956 1036.975220,2023.299805 1031.106934,2021.789551 
	C1023.095764,2019.727661 1014.935181,2018.243652 1006.932861,2016.151367 
	C996.037354,2013.302734 984.673767,2011.342773 974.533386,2006.746094 
	C963.014587,2001.524780 951.435303,1997.933960 938.997925,1998.490601 
	C926.413574,1999.053833 913.913391,2001.506836 901.329102,2002.063843 
	C891.342590,2002.506104 883.430786,2006.153198 876.421997,2012.915649 
	C873.686768,2015.554810 870.281006,2017.499146 865.882629,2020.706421 
	C862.230164,2013.857300 859.200623,2008.176147 855.911133,2002.007568 
	C856.229065,2002.186279 855.938843,2001.877441 855.659302,2001.886719 
	C837.036865,2002.503662 827.722595,1996.694092 820.315613,1979.471558 
	C818.125671,1974.379639 814.320679,1971.484985 809.164978,1970.563599 
	C802.300110,1969.336548 795.366577,1968.361694 788.420654,1967.770264 
	C784.323059,1967.421387 780.755798,1967.009521 777.671021,1963.679688 
	C774.259583,1959.997437 769.715820,1959.589844 764.286865,1961.405029 
	C767.417969,1967.717896 770.268860,1973.639160 773.271301,1979.482544 
	C779.100159,1990.826538 777.657837,1993.630371 764.861145,1995.526611 
	C754.497681,1997.062378 754.494324,1997.062500 754.344971,2006.987549 
	C754.319885,2008.653687 754.235291,2010.327637 754.354919,2011.985229 
	C754.815979,2018.375732 753.447876,2023.136719 747.069580,2026.874268 
	C739.876160,2031.089722 740.248779,2037.377563 747.600525,2041.464722 
	C755.971008,2046.118286 765.003418,2049.570557 773.674683,2053.699219 
	C776.544617,2055.065674 780.038147,2056.280273 781.788208,2058.643799 
	C790.013000,2069.753418 789.071655,2078.813477 779.531189,2088.983887 
	C770.167358,2098.965576 759.969543,2107.762451 748.170349,2114.938721 
	C740.189392,2119.792725 732.531799,2122.465820 723.794495,2118.427002 
	C714.727295,2114.235840 714.134827,2105.634766 713.703613,2097.179443 
	C713.071167,2084.777588 714.129517,2072.663574 718.410645,2060.798340 
	C721.652710,2051.812744 720.398193,2050.781494 710.634644,2050.258789 
	C705.360657,2049.976562 699.958191,2049.580078 694.912659,2048.167480 
	C688.346802,2046.329224 686.936951,2043.745972 687.885925,2036.995361 
	C688.577759,2032.073608 690.042419,2027.264526 691.058533,2022.383423 
	C692.445007,2015.723389 691.242188,2013.092896 685.095581,2010.910156 
	C682.357605,2009.937866 679.205017,2010.205811 676.309631,2009.587646 
	C671.639709,2008.590820 667.026978,2007.326294 662.390076,2006.174927 
	C662.392212,2005.488647 662.394287,2004.802368 662.396423,2004.116089 
	C666.974426,2001.828491 671.552429,1999.541016 675.937317,1997.350098 
	C673.368591,1982.430664 670.288330,1976.402466 660.301636,1967.630005 
	C655.806763,1963.681641 653.353271,1958.908691 652.364014,1953.096558 
	C648.628906,1931.152222 635.023499,1915.835449 615.205688,1915.137451 
	C612.904541,1915.056519 610.624512,1914.360596 608.335754,1913.943726 
	C591.168457,1910.818237 574.682495,1906.180420 560.582214,1895.058350 
	C554.114441,1889.956909 547.183655,1885.253784 539.923767,1881.380493 
	C516.913025,1869.103882 499.998230,1849.478882 480.581360,1832.892334 
	C468.972626,1822.975708 457.911835,1812.414917 446.669403,1802.073364 
	C438.850525,1794.881226 431.079834,1787.634155 423.398590,1780.295410 
	C413.567688,1770.902710 403.943329,1761.292114 394.045776,1751.971069 
	C388.005615,1746.282837 380.517273,1746.483887 373.377838,1748.849243 
	C366.793213,1751.030640 360.573059,1754.350098 354.272186,1757.336670 
	C350.113403,1759.307617 346.095764,1761.576538 341.906769,1763.768677 
	C337.594299,1749.966187 334.458099,1747.338989 320.384338,1747.757935 
	C302.108765,1748.302124 283.806183,1748.983887 265.605591,1750.614624 
	C254.549103,1751.605347 243.191864,1752.634521 232.633362,1758.329468 
	C234.389145,1764.030762 236.018295,1769.320801 237.991333,1775.727417 
	C233.286484,1776.663696 229.147690,1778.178467 225.016754,1778.157349 
	C217.722565,1778.119995 211.238647,1779.826904 205.311172,1784.031982 
	C202.233871,1786.215332 198.881058,1787.722412 195.085098,1785.741577 
	C190.440109,1783.317749 186.042236,1784.694336 181.608093,1786.385864 
	C178.752975,1787.474731 175.850220,1788.438721 172.968765,1789.458740 
	C172.644302,1788.779419 172.319839,1788.100098 171.995377,1787.420776 
	C179.452835,1779.791626 186.503006,1771.689697 196.898041,1767.836060 
	C193.669479,1757.711792 191.116730,1756.859375 184.303513,1763.207764 
	C181.135925,1766.159302 178.185883,1769.349854 174.947418,1772.217773 
	C172.146866,1774.697998 168.894684,1774.958008 165.766129,1772.775513 
	C162.437317,1770.453125 160.594574,1767.123169 162.451187,1763.289673 
	C164.607635,1758.837402 167.515167,1754.744751 170.151306,1750.530151 
	C172.378220,1746.969971 174.683151,1743.458496 177.576370,1738.956421 
	C171.456970,1733.182007 166.337936,1727.513306 160.390228,1722.916870 
	C148.692337,1713.876343 138.049683,1704.036011 130.536682,1691.102539 
	C125.108559,1681.758057 117.757729,1674.197021 108.878510,1667.952515 
	C102.930908,1663.769897 97.432068,1658.936768 91.841026,1654.264771 
	C89.080399,1651.957886 86.565636,1649.356812 83.209480,1646.202637 
	C71.531326,1654.839966 56.733467,1657.126465 47.422020,1669.349731 
	C44.997551,1672.532227 38.607815,1673.172119 33.872601,1673.911011 
	C31.573067,1674.269653 28.888618,1672.161133 25.967976,1671.007446 
	C29.813438,1662.413086 32.385162,1654.666382 43.027237,1655.685059 
	C44.677761,1655.842896 46.928986,1654.424805 48.200752,1653.074707 
	C56.341957,1644.431396 64.287315,1635.603638 72.775650,1626.312500 
	C69.281326,1620.587891 65.939621,1614.863037 62.348263,1609.299194 
	C58.699265,1603.646362 55.424038,1598.007568 55.526249,1590.891357 
	C55.559502,1588.576660 54.142231,1586.241089 53.480801,1584.200195 
	C51.660866,1584.307007 50.948132,1584.193115 50.367184,1584.418579 
	C49.453743,1584.773438 48.597641,1585.308716 47.771530,1585.850342 
	C39.582172,1591.221558 31.971533,1591.724609 29.070642,1587.066772 
	C26.340096,1582.682495 29.495384,1576.151245 37.243046,1571.002197 
	C41.097076,1568.440918 43.914116,1565.297485 44.224751,1560.661133 
	C44.619007,1554.776611 45.498489,1548.677002 44.419090,1543.002808 
	C42.998276,1535.533813 44.554058,1530.178101 50.511436,1525.472534 
	C59.772762,1518.157471 66.880745,1509.072266 72.227142,1498.431396 
	C74.555702,1493.796997 77.946266,1489.348877 81.822441,1485.905884 
	C92.319008,1476.581909 102.571022,1467.181641 108.347923,1454.195801 
	C110.201904,1453.992920 111.540100,1453.603882 112.819603,1453.745483 
	C121.595886,1454.716064 127.234787,1450.465332 131.641174,1443.312744 
	C135.579147,1436.920532 138.016708,1429.768188 142.916153,1423.759399 
	C145.151764,1421.017822 145.049652,1415.567261 144.506546,1411.548218 
	C143.665756,1405.326294 141.112823,1399.347412 140.103409,1393.132568 
	C139.405136,1388.833374 137.456085,1385.888428 134.408142,1383.058228 
	C126.133507,1375.374756 126.285378,1370.400757 134.790878,1363.683594 
	C147.531036,1353.622070 151.759750,1339.885864 149.704407,1324.650879 
	C147.710220,1309.869263 143.722092,1295.363525 140.809601,1280.696899 
	C137.064392,1261.837158 130.705948,1243.408691 131.994904,1223.699829 
	C132.265915,1219.555786 130.470642,1215.242676 129.431534,1211.056030 
	C128.243027,1206.267700 126.652367,1201.574951 125.564064,1196.766602 
	C123.643005,1188.278931 119.943245,1180.893555 111.966515,1176.813599 
	C98.098740,1169.720703 84.006569,1163.066528 69.390732,1155.926636 
	C66.715874,1158.912720 63.986767,1161.338989 62.013546,1164.273438 
	C54.779274,1175.031982 47.715763,1185.908081 40.739738,1196.836792 
	C32.554123,1209.660400 17.114880,1211.595093 6.112441,1201.172729 
	C5.194756,1200.303467 3.391702,1200.368896 1.999999,1200.000000 
M790.336243,562.024780 
	C791.533386,562.803162 792.730469,563.581543 795.811035,564.330750 
	C815.067932,564.330750 834.324829,564.330750 853.866516,564.330750 
	C944.089539,775.899963 1033.985840,986.703125 1123.882202,1197.506348 
	C1124.696411,1197.346191 1125.510620,1197.186035 1126.324829,1197.025879 
	C1126.324829,1173.896729 1126.324829,1150.767456 1126.324829,1127.638306 
	C1126.324829,1103.972534 1126.324829,1080.306885 1126.324829,1056.641113 
	C1126.324829,1033.308716 1126.324829,1009.976257 1126.324829,986.643860 
	C1126.324829,963.311462 1126.324829,939.979065 1126.324829,916.646667 
	C1126.324829,892.980957 1126.324829,869.315247 1126.324829,845.649536 
	C1126.324829,822.317139 1126.324829,798.984680 1126.324829,775.652283 
	C1126.324829,752.319885 1126.324829,728.987488 1126.324829,705.655090 
	C1126.324829,681.989380 1126.186646,658.322632 1126.364258,634.658264 
	C1126.538086,611.496338 1125.571289,588.298767 1126.955078,565.355469 
	C1141.327393,563.398804 1289.329712,564.004883 1296.951172,565.988586 
	C1296.951172,940.328857 1296.951172,1314.772217 1296.951172,1689.770264 
	C1251.014282,1689.770264 1205.800415,1689.770264 1160.205200,1689.770264 
	C1159.027222,1687.387329 1157.711792,1685.092041 1156.719482,1682.664551 
	C1140.720215,1643.523926 1124.795410,1604.352905 1108.788086,1565.215698 
	C1070.218506,1470.915039 1031.621704,1376.625610 993.022339,1282.337158 
	C970.190735,1226.565308 947.287415,1170.822876 924.505615,1115.030762 
	C912.174255,1084.831421 900.030334,1054.555664 887.759827,1023.591858 
	C887.138672,1023.193115 886.517517,1022.794312 885.896362,1022.395569 
	C885.916870,1022.925903 885.937378,1023.456299 885.808044,1025.858154 
	C885.760681,1030.856323 885.672119,1035.854370 885.671997,1040.852539 
	C885.664978,1252.490479 885.668213,1464.128418 885.650269,1675.766357 
	C885.649902,1680.312988 885.416992,1684.859619 885.287537,1689.589355 
	C826.306763,1689.589355 768.509460,1689.589355 710.334656,1689.589355 
	C710.334656,1314.434570 710.334656,940.015930 710.334656,564.307129 
	C725.379639,564.307129 739.790466,564.307129 754.201233,564.307129 
	C754.406128,563.616943 754.610962,562.926819 754.815857,562.236633 
	C752.347290,560.293274 749.966675,558.223755 747.393860,556.429871 
	C739.336365,550.811829 732.331665,544.247437 728.703369,534.882019 
	C723.323730,520.995850 714.874817,510.006531 701.027466,503.578094 
	C698.389709,502.353546 696.348633,499.880951 693.954285,498.088318 
	C683.065186,489.935608 660.929077,488.500336 649.579834,495.936188 
	C642.456421,500.603394 635.750183,501.360779 627.945740,498.147125 
	C617.533997,493.859894 606.620728,492.824860 595.677734,495.868713 
	C588.007080,498.002350 580.253784,500.208374 573.027954,503.469269 
	C565.534363,506.850922 558.067139,508.565887 549.873962,508.401672 
	C535.881470,508.121216 521.861450,508.759827 507.886810,508.187592 
	C496.632324,507.726715 485.428711,506.038086 474.200714,504.912201 
	C463.313446,503.820465 452.439728,502.107269 441.531281,501.839905 
	C428.599884,501.523010 421.877380,509.065063 422.395538,521.847351 
	C422.502075,524.475098 423.176666,527.083496 423.635040,529.692749 
	C425.647369,541.147278 428.864624,552.537354 429.462494,564.063965 
	C430.892883,591.642456 431.103058,619.202759 427.831055,646.821960 
	C423.796570,680.877502 406.585632,705.962280 378.266663,723.566467 
	C367.076385,730.522888 354.398315,735.367065 341.949066,739.956116 
	C319.116241,748.372620 303.597015,764.054688 291.989441,784.997009 
	C281.031097,804.768005 268.755371,823.809570 257.029175,843.153870 
	C251.718307,851.915039 245.238220,860.157410 241.208130,869.466187 
	C232.236115,890.189941 224.012085,911.202515 217.391586,932.922363 
	C213.053223,947.155396 210.091385,961.097900 210.280228,975.883606 
	C210.407776,985.869324 210.284378,995.876831 209.765900,1005.848206 
	C208.799744,1024.429688 207.463806,1042.991699 206.351089,1062.490356 
	C206.501236,1063.111450 206.807922,1063.641846 207.543549,1065.915039 
	C208.526901,1088.438599 209.502792,1110.962524 210.519073,1133.484619 
	C210.562805,1134.453735 210.979050,1135.406128 211.141251,1137.059570 
	C211.186188,1137.558716 211.403412,1137.966431 211.703201,1140.056274 
	C212.526657,1154.323730 213.236481,1168.598877 214.222336,1182.855103 
	C214.702682,1189.801270 215.306030,1196.782349 216.539383,1203.624146 
	C219.422531,1219.617798 222.728668,1235.535156 225.845062,1251.487061 
	C226.927338,1257.026855 227.509537,1262.709717 229.108566,1268.093140 
	C231.751266,1276.990356 235.334412,1285.607544 237.994873,1294.500244 
	C249.426514,1332.710815 258.916534,1371.625366 279.452179,1406.463257 
	C280.126038,1407.606567 280.760498,1408.817505 281.148041,1410.078491 
	C286.678650,1428.071167 296.491760,1444.025757 305.766541,1460.116577 
	C316.892670,1479.419067 328.745209,1498.351807 341.206024,1516.822144 
	C353.617432,1535.219116 367.024506,1552.954712 380.281219,1570.767212 
	C388.021454,1581.167603 396.712524,1590.869263 404.288055,1601.380981 
	C419.137360,1621.985718 439.567139,1636.516357 458.627747,1652.567993 
	C465.196228,1658.099487 470.946747,1665.139771 478.361267,1669.033569 
	C506.469604,1683.794800 529.767090,1704.681396 552.395752,1726.236816 
	C570.387085,1743.374634 590.788330,1757.080688 611.373901,1770.422363 
	C621.716858,1777.125732 633.440674,1781.746948 643.882446,1788.805786 
	C652.322266,1794.511108 662.294861,1798.048828 671.787415,1802.077026 
	C693.516907,1811.297974 713.876587,1823.685669 736.804565,1830.136597 
	C750.510315,1833.992798 763.450012,1840.315430 778.165222,1840.990112 
	C783.955627,1841.255615 789.437500,1844.156250 795.404602,1840.939087 
	C798.179993,1839.442871 801.526978,1840.257324 803.142029,1843.453003 
	C804.947144,1847.024780 807.877441,1847.373169 811.382935,1847.751709 
	C820.304688,1848.715454 827.142212,1846.799194 829.470581,1836.924561 
	C829.670776,1836.075439 830.622986,1835.403809 831.678345,1834.083618 
	C834.729431,1836.109497 837.662964,1838.173340 840.707703,1840.057739 
	C850.601990,1846.180786 861.254028,1846.516479 871.004028,1841.061646 
	C875.798828,1838.378906 880.129700,1837.069336 884.982239,1837.936279 
	C895.442749,1839.804688 905.941406,1841.767212 916.143494,1844.676270 
	C923.938293,1846.899170 930.431091,1846.992676 935.953186,1840.239136 
	C938.599731,1837.002563 942.325500,1834.415894 946.437988,1836.260254 
	C954.145752,1839.716797 961.698120,1839.284546 969.702576,1837.883301 
	C973.459167,1837.225830 977.640259,1838.272095 981.506775,1839.110229 
	C990.279663,1841.011719 998.979248,1843.252686 1007.703857,1845.375244 
	C1012.527100,1846.548706 1016.915100,1846.215942 1020.572021,1842.296143 
	C1022.151306,1840.603394 1024.020142,1839.163696 1025.845947,1837.721313 
	C1033.514893,1831.663330 1040.473877,1833.863159 1043.202271,1843.319702 
	C1044.168823,1846.669434 1044.637817,1850.162720 1045.333862,1853.590454 
	C1048.455078,1852.002563 1049.722534,1849.983276 1050.958374,1847.944946 
	C1054.800781,1841.607422 1059.018066,1840.384033 1065.811768,1843.604492 
	C1069.331055,1845.272949 1072.880005,1846.879028 1077.624634,1849.072144 
	C1079.260376,1844.728638 1080.736694,1841.204956 1081.910156,1837.583252 
	C1083.143311,1833.777222 1085.715332,1833.115356 1088.908447,1834.532959 
	C1090.657837,1835.309814 1092.287842,1836.676636 1093.567383,1838.132690 
	C1097.951782,1843.121582 1102.145752,1848.277466 1106.434082,1853.351318 
	C1111.952881,1859.881226 1119.147461,1861.375732 1124.861938,1857.346680 
	C1128.800781,1854.569458 1132.869263,1851.976196 1137.677490,1848.768433 
	C1137.422607,1845.999390 1137.167603,1842.395264 1136.745239,1838.810669 
	C1135.775024,1830.573975 1140.497559,1824.595703 1148.743774,1823.735107 
	C1160.372803,1822.521484 1165.854980,1827.639404 1166.396851,1839.673096 
	C1166.663574,1845.598755 1167.354736,1851.540649 1168.372070,1857.385010 
	C1169.118164,1861.671875 1171.845459,1863.926758 1176.601929,1864.611084 
	C1189.292603,1866.436768 1201.816895,1866.858765 1213.924194,1862.002441 
	C1235.319824,1853.420288 1257.678711,1848.185547 1279.930054,1842.542236 
	C1288.409302,1840.391724 1296.832397,1839.613647 1305.585083,1841.217163 
	C1314.304077,1842.814575 1322.757446,1841.483765 1330.663452,1836.981689 
	C1336.141968,1833.861938 1341.776123,1830.935303 1347.576660,1828.479248 
	C1356.428589,1824.731201 1365.827271,1822.148926 1374.386353,1817.859497 
	C1396.424438,1806.814819 1417.782959,1794.532471 1437.801270,1780.045166 
	C1462.323242,1762.298218 1489.182251,1748.023804 1512.684082,1728.676514 
	C1525.477417,1718.144531 1540.271606,1710.062378 1553.231934,1699.709229 
	C1572.325806,1684.456177 1591.740356,1669.411987 1607.740234,1650.702271 
	C1614.001465,1643.380737 1618.934082,1634.814087 1625.719482,1628.070068 
	C1647.861084,1606.064453 1664.532227,1579.755981 1682.015015,1554.416382 
	C1695.407959,1535.004517 1707.722656,1514.371826 1718.072021,1492.807129 
	C1732.761230,1462.199585 1748.342773,1432.020996 1763.447876,1401.611938 
	C1765.358154,1397.766235 1766.960205,1393.719360 1768.251343,1389.622559 
	C1773.540405,1372.840576 1778.646851,1356.000977 1783.849121,1339.191528 
	C1784.139648,1338.252563 1784.623535,1337.356201 1785.123779,1336.502197 
	C1794.810913,1319.965210 1800.666260,1302.042236 1804.801392,1283.418823 
	C1809.126587,1263.939331 1813.332397,1244.406860 1818.558960,1225.160645 
	C1825.044067,1201.279907 1826.973267,1176.760986 1831.025146,1151.789307 
	C1831.443604,1151.236450 1831.543335,1150.631104 1831.565552,1148.119019 
	C1832.487793,1131.183960 1834.424805,1114.228760 1834.088623,1097.318726 
	C1833.613525,1073.412354 1831.643311,1049.526367 1829.964233,1025.656250 
	C1828.636108,1006.774353 1827.561157,987.819946 1824.927734,969.101196 
	C1822.662231,952.998901 1818.414062,937.170715 1814.919556,921.248291 
	C1813.354858,914.118835 1811.782715,906.967468 1809.690308,899.982910 
	C1806.736694,890.123413 1803.158081,880.452759 1800.102661,870.621765 
	C1796.749390,859.832092 1793.484253,849.006226 1790.572510,838.091553 
	C1788.781982,831.379639 1786.805664,824.507690 1786.538940,817.644348 
	C1786.049683,805.060730 1780.660034,797.046082 1768.619263,793.034119 
	C1756.156494,788.881592 1745.139160,781.907104 1735.220459,773.412781 
	C1721.473022,761.639771 1714.081177,746.766235 1716.542847,728.385620 
	C1718.036987,717.229309 1720.787354,706.232056 1723.192261,695.211121 
	C1724.254395,690.343445 1726.479614,685.663696 1727.027466,680.769958 
	C1727.486938,676.665588 1727.245850,671.941284 1725.598755,668.259094 
	C1722.494263,661.318604 1718.147095,654.934814 1714.328613,648.312622 
	C1704.197021,630.742126 1690.871826,615.197510 1681.903442,596.860657 
	C1679.589111,592.128784 1676.122803,587.908386 1672.867188,583.699402 
	C1665.130249,573.696716 1657.377563,563.696350 1649.295044,553.974548 
	C1643.346680,546.819641 1636.889282,540.086182 1630.615601,533.204163 
	C1626.152100,528.307861 1621.225586,523.780334 1617.180542,518.564819 
	C1597.991943,493.823914 1574.753540,473.662964 1548.400146,456.970642 
	C1541.099976,452.346680 1532.956299,448.806183 1526.363892,443.359375 
	C1505.717285,426.300446 1483.391113,412.272461 1458.768433,401.663544 
	C1444.697021,395.600677 1431.056641,388.543213 1415.507935,386.987305 
	C1409.899658,386.426117 1404.046509,386.908203 1398.692993,385.470459 
	C1382.965332,381.246796 1367.224121,380.410889 1351.361938,383.841583 
	C1337.482056,386.843628 1324.310059,384.992950 1311.481934,379.330078 
	C1306.913208,377.313324 1302.276978,375.448669 1297.718628,373.409698 
	C1279.456665,365.241089 1261.481079,356.697113 1246.354004,343.078705 
	C1235.734619,333.518555 1224.425659,324.727448 1213.493774,315.510864 
	C1200.026489,304.156799 1186.630981,292.717590 1172.785522,280.959442 
	C1172.986938,279.682281 1173.388916,278.096985 1173.464722,276.496216 
	C1173.914062,267.003693 1171.024170,263.196808 1161.419434,261.555359 
	C1149.791260,259.568085 1139.870239,263.743530 1131.324585,271.277954 
	C1122.090576,279.419342 1113.480225,288.288849 1104.032104,296.161682 
	C1088.705811,308.932556 1070.899292,309.995667 1055.142822,293.397766 
	C1047.866943,285.733429 1040.735962,277.446503 1035.698975,268.257904 
	C1028.486084,255.099899 1017.935425,249.751602 1003.854004,250.453186 
	C994.270813,250.930634 984.771973,253.017059 975.188171,253.584259 
	C958.307434,254.583298 945.818665,261.974792 936.179260,276.016357 
	C928.882996,286.644806 919.830627,296.081879 911.387024,305.900604 
	C908.586670,309.156921 905.067749,311.788269 902.192017,314.988159 
	C894.545593,323.496368 889.419250,323.994019 879.753479,317.171600 
	C876.364563,314.779602 872.651123,312.847443 867.719482,309.884338 
	C863.446045,319.125519 859.070984,326.947693 856.136841,335.277405 
	C850.277161,351.912262 841.833191,366.571503 829.004761,378.952393 
	C824.020386,383.762817 819.202637,388.123291 812.442810,389.166199 
	C807.663879,389.903442 804.434998,392.350494 801.831055,395.849152 
	C798.258057,400.649658 794.481445,405.436920 791.812134,410.743011 
	C786.139282,422.019897 781.022034,433.582092 775.872681,445.114655 
	C771.705444,454.447601 766.703552,463.474335 769.244995,474.616730 
	C769.809387,477.091034 766.656067,481.394623 764.073975,483.349487 
	C761.049622,485.639099 756.851135,486.551697 753.032104,487.579254 
	C746.263306,489.400543 743.084961,492.943787 744.743225,499.693176 
	C746.711487,507.704620 749.888977,515.427734 752.691345,523.222290 
	C754.463440,528.151245 756.394470,533.031311 758.474365,537.838074 
	C759.632629,540.514832 760.658752,543.694763 762.751282,545.442444 
	C770.869629,552.222900 779.459534,558.399475 789.982178,561.031616 
	C789.982178,561.031616 790.041016,561.085815 790.336243,562.024780 
M575.419373,220.206360 
	C576.742737,219.480347 578.066040,218.754333 579.389404,218.028336 
	C574.819031,216.834686 570.467773,213.735718 564.167664,218.687393 
	C568.806580,219.478989 571.474731,219.934296 575.419373,220.206360 
z"/>
<path fill="#000000" opacity="1.000000" stroke="none" 
	d="
M1.999999,1200.937256 
	C3.391702,1200.368896 5.194756,1200.303467 6.112441,1201.172729 
	C17.114880,1211.595093 32.554123,1209.660400 40.739738,1196.836792 
	C47.715763,1185.908081 54.779274,1175.031982 62.013546,1164.273438 
	C63.986767,1161.338989 66.715874,1158.912720 69.390732,1155.926636 
	C84.006569,1163.066528 98.098740,1169.720703 111.966515,1176.813599 
	C119.943245,1180.893555 123.643005,1188.278931 125.564064,1196.766602 
	C126.652367,1201.574951 128.243027,1206.267700 129.431534,1211.056030 
	C130.470642,1215.242676 132.265915,1219.555786 131.994904,1223.699829 
	C130.705948,1243.408691 137.064392,1261.837158 140.809601,1280.696899 
	C143.722092,1295.363525 147.710220,1309.869263 149.704407,1324.650879 
	C151.759750,1339.885864 147.531036,1353.622070 134.790878,1363.683594 
	C126.285378,1370.400757 126.133507,1375.374756 134.408142,1383.058228 
	C137.456085,1385.888428 139.405136,1388.833374 140.103409,1393.132568 
	C141.112823,1399.347412 143.665756,1405.326294 144.506546,1411.548218 
	C145.049652,1415.567261 145.151764,1421.017822 142.916153,1423.759399 
	C138.016708,1429.768188 135.579147,1436.920532 131.641174,1443.312744 
	C127.234787,1450.465332 121.595886,1454.716064 112.819603,1453.745483 
	C111.540100,1453.603882 110.201904,1453.992920 108.347923,1454.195801 
	C102.571022,1467.181641 92.319008,1476.581909 81.822441,1485.905884 
	C77.946266,1489.348877 74.555702,1493.796997 72.227142,1498.431396 
	C66.880745,1509.072266 59.772762,1518.157471 50.511436,1525.472534 
	C44.554058,1530.178101 42.998276,1535.533813 44.419090,1543.002808 
	C45.498489,1548.677002 44.619007,1554.776611 44.224751,1560.661133 
	C43.914116,1565.297485 41.097076,1568.440918 37.243046,1571.002197 
	C29.495384,1576.151245 26.340096,1582.682495 29.070642,1587.066772 
	C31.971533,1591.724609 39.582172,1591.221558 47.771530,1585.850342 
	C48.597641,1585.308716 49.453743,1584.773438 50.367184,1584.418579 
	C50.948132,1584.193115 51.660866,1584.307007 53.480801,1584.200195 
	C54.142231,1586.241089 55.559502,1588.576660 55.526249,1590.891357 
	C55.424038,1598.007568 58.699265,1603.646362 62.348263,1609.299194 
	C65.939621,1614.863037 69.281326,1620.587891 72.775650,1626.312500 
	C64.287315,1635.603638 56.341957,1644.431396 48.200752,1653.074707 
	C46.928986,1654.424805 44.677761,1655.842896 43.027237,1655.685059 
	C32.385162,1654.666382 29.813438,1662.413086 25.967976,1671.007446 
	C28.888618,1672.161133 31.573067,1674.269653 33.872601,1673.911011 
	C38.607815,1673.172119 44.997551,1672.532227 47.422020,1669.349731 
	C56.733467,1657.126465 71.531326,1654.839966 83.209480,1646.202637 
	C86.565636,1649.356812 89.080399,1651.957886 91.841026,1654.264771 
	C97.432068,1658.936768 102.930908,1663.769897 108.878510,1667.952515 
	C117.757729,1674.197021 125.108559,1681.758057 130.536682,1691.102539 
	C138.049683,1704.036011 148.692337,1713.876343 160.390228,1722.916870 
	C166.337936,1727.513306 171.456970,1733.182007 177.576370,1738.956421 
	C174.683151,1743.458496 172.378220,1746.969971 170.151306,1750.530151 
	C167.515167,1754.744751 164.607635,1758.837402 162.451187,1763.289673 
	C160.594574,1767.123169 162.437317,1770.453125 165.766129,1772.775513 
	C168.894684,1774.958008 172.146866,1774.697998 174.947418,1772.217773 
	C178.185883,1769.349854 181.135925,1766.159302 184.303513,1763.207764 
	C191.116730,1756.859375 193.669479,1757.711792 196.898041,1767.836060 
	C186.503006,1771.689697 179.452835,1779.791626 171.995377,1787.420776 
	C172.319839,1788.100098 172.644302,1788.779419 172.968765,1789.458740 
	C175.850220,1788.438721 178.752975,1787.474731 181.608093,1786.385864 
	C186.042236,1784.694336 190.440109,1783.317749 195.085098,1785.741577 
	C198.881058,1787.722412 202.233871,1786.215332 205.311172,1784.031982 
	C211.238647,1779.826904 217.722565,1778.119995 225.016754,1778.157349 
	C229.147690,1778.178467 233.286484,1776.663696 237.991333,1775.727417 
	C236.018295,1769.320801 234.389145,1764.030762 232.633362,1758.329468 
	C243.191864,1752.634521 254.549103,1751.605347 265.605591,1750.614624 
	C283.806183,1748.983887 302.108765,1748.302124 320.384338,1747.757935 
	C334.458099,1747.338989 337.594299,1749.966187 341.906769,1763.768677 
	C346.095764,1761.576538 350.113403,1759.307617 354.272186,1757.336670 
	C360.573059,1754.350098 366.793213,1751.030640 373.377838,1748.849243 
	C380.517273,1746.483887 388.005615,1746.282837 394.045776,1751.971069 
	C403.943329,1761.292114 413.567688,1770.902710 423.398590,1780.295410 
	C431.079834,1787.634155 438.850525,1794.881226 446.669403,1802.073364 
	C457.911835,1812.414917 468.972626,1822.975708 480.581360,1832.892334 
	C499.998230,1849.478882 516.913025,1869.103882 539.923767,1881.380493 
	C547.183655,1885.253784 554.114441,1889.956909 560.582214,1895.058350 
	C574.682495,1906.180420 591.168457,1910.818237 608.335754,1913.943726 
	C610.624512,1914.360596 612.904541,1915.056519 615.205688,1915.137451 
	C635.023499,1915.835449 648.628906,1931.152222 652.364014,1953.096558 
	C653.353271,1958.908691 655.806763,1963.681641 660.301636,1967.630005 
	C670.288330,1976.402466 673.368591,1982.430664 675.937317,1997.350098 
	C671.552429,1999.541016 666.974426,2001.828491 662.396423,2004.116089 
	C662.394287,2004.802368 662.392212,2005.488647 662.390076,2006.174927 
	C667.026978,2007.326294 671.639709,2008.590820 676.309631,2009.587646 
	C679.205017,2010.205811 682.357605,2009.937866 685.095581,2010.910156 
	C691.242188,2013.092896 692.445007,2015.723389 691.058533,2022.383423 
	C690.042419,2027.264526 688.577759,2032.073608 687.885925,2036.995361 
	C686.936951,2043.745972 688.346802,2046.329224 694.912659,2048.167480 
	C699.958191,2049.580078 705.360657,2049.976562 710.634644,2050.258789 
	C720.398193,2050.781494 721.652710,2051.812744 718.410645,2060.798340 
	C714.129517,2072.663574 713.071167,2084.777588 713.703613,2097.179443 
	C714.134827,2105.634766 714.727295,2114.235840 723.794495,2118.427002 
	C732.531799,2122.465820 740.189392,2119.792725 748.170349,2114.938721 
	C759.969543,2107.762451 770.167358,2098.965576 779.531189,2088.983887 
	C789.071655,2078.813477 790.013000,2069.753418 781.788208,2058.643799 
	C780.038147,2056.280273 776.544617,2055.065674 773.674683,2053.699219 
	C765.003418,2049.570557 755.971008,2046.118286 747.600525,2041.464722 
	C740.248779,2037.377563 739.876160,2031.089722 747.069580,2026.874268 
	C753.447876,2023.136719 754.815979,2018.375732 754.354919,2011.985229 
	C754.235291,2010.327637 754.319885,2008.653687 754.344971,2006.987549 
	C754.494324,1997.062500 754.497681,1997.062378 764.861145,1995.526611 
	C777.657837,1993.630371 779.100159,1990.826538 773.271301,1979.482544 
	C770.268860,1973.639160 767.417969,1967.717896 764.286865,1961.405029 
	C769.715820,1959.589844 774.259583,1959.997437 777.671021,1963.679688 
	C780.755798,1967.009521 784.323059,1967.421387 788.420654,1967.770264 
	C795.366577,1968.361694 802.300110,1969.336548 809.164978,1970.563599 
	C814.320679,1971.484985 818.125671,1974.379639 820.315613,1979.471558 
	C827.722595,1996.694092 837.036865,2002.503662 855.659302,2001.886719 
	C855.938843,2001.877441 856.229065,2002.186279 855.911133,2002.007568 
	C859.200623,2008.176147 862.230164,2013.857300 865.882629,2020.706421 
	C870.281006,2017.499146 873.686768,2015.554810 876.421997,2012.915649 
	C883.430786,2006.153198 891.342590,2002.506104 901.329102,2002.063843 
	C913.913391,2001.506836 926.413574,1999.053833 938.997925,1998.490601 
	C951.435303,1997.933960 963.014587,2001.524780 974.533386,2006.746094 
	C984.673767,2011.342773 996.037354,2013.302734 1006.932861,2016.151367 
	C1014.935181,2018.243652 1023.095764,2019.727661 1031.106934,2021.789551 
	C1036.975220,2023.299805 1040.643311,2027.454956 1043.246826,2032.839722 
	C1048.587769,2043.886719 1054.792236,2046.370850 1066.450684,2042.433105 
	C1071.801636,2040.625854 1077.123291,2038.728149 1082.502808,2037.011475 
	C1085.325806,2036.110596 1088.245239,2035.511353 1092.227661,2034.492798 
	C1094.691406,2040.655396 1097.118530,2046.669067 1099.501099,2052.700195 
	C1102.838013,2061.146240 1119.019897,2069.625488 1127.569336,2067.161865 
	C1133.537109,2065.442139 1137.239380,2061.348145 1138.078491,2055.119873 
	C1138.787109,2049.860596 1139.906128,2044.478271 1139.409302,2039.287720 
	C1138.957764,2034.570679 1137.032593,2029.813110 1134.905640,2025.492310 
	C1133.015015,2021.651855 1131.938599,2018.343628 1133.932129,2014.218994 
	C1136.133057,2009.665039 1140.052490,2009.030884 1144.031616,2009.787964 
	C1156.094849,2012.083374 1166.138794,2008.054199 1175.808594,2001.285400 
	C1188.559937,1992.359985 1199.238892,1995.836548 1206.825928,2002.985229 
	C1211.758667,2007.632935 1215.300171,2013.844971 1219.073730,2019.612305 
	C1223.597900,2026.526978 1227.275024,2034.027588 1232.125732,2040.686768 
	C1236.238403,2046.332642 1242.770264,2047.559326 1248.007202,2045.027710 
	C1253.149536,2042.541382 1256.238281,2035.320312 1254.620972,2028.810547 
	C1253.742920,2025.276611 1252.278809,2021.890747 1251.133911,2018.420044 
	C1245.833252,2002.354736 1253.065063,1990.501099 1269.813232,1988.366455 
	C1276.276855,1987.542603 1280.736328,1984.747192 1284.362183,1979.245361 
	C1287.003296,1975.237915 1290.783447,1971.671753 1294.750854,1968.905884 
	C1306.493408,1960.719971 1318.552856,1952.985596 1330.561523,1945.187256 
	C1332.462769,1943.952637 1334.685669,1943.129639 1336.856567,1942.407471 
	C1351.634521,1937.491699 1366.490479,1932.805420 1381.213257,1927.731689 
	C1389.407837,1924.907593 1397.267090,1921.376587 1403.687744,1915.124878 
	C1405.723267,1913.142822 1408.853882,1912.234497 1411.559937,1911.003052 
	C1417.011963,1908.521484 1422.677856,1906.462524 1427.967896,1903.681641 
	C1441.425415,1896.607056 1455.343018,1894.261719 1470.348511,1897.624390 
	C1480.841553,1899.975830 1486.706055,1895.742554 1487.499878,1885.365112 
	C1487.847534,1880.820312 1489.552002,1878.405273 1493.266113,1875.922607 
	C1517.576416,1859.671143 1541.721558,1843.170410 1565.800293,1826.576660 
	C1571.792725,1822.447144 1576.729614,1816.210693 1583.219604,1813.493408 
	C1598.781860,1806.977417 1612.421997,1797.692383 1625.704468,1787.659668 
	C1630.975586,1783.678223 1635.866089,1783.931641 1641.295654,1787.531982 
	C1644.483643,1789.645874 1648.245361,1791.617065 1651.944214,1792.075195 
	C1658.060425,1792.832520 1661.272339,1789.615967 1661.616821,1783.419556 
	C1661.760986,1780.829102 1661.754028,1777.720093 1660.492432,1775.655518 
	C1656.474121,1769.079956 1658.571045,1763.974976 1662.914429,1758.649414 
	C1667.747070,1752.724121 1672.098999,1746.407471 1676.678711,1740.274902 
	C1677.273926,1739.477783 1677.828735,1738.434448 1678.654297,1738.057739 
	C1691.511353,1732.194458 1698.654053,1719.679443 1709.565186,1711.551025 
	C1711.939575,1709.782104 1713.996460,1707.494629 1715.896973,1705.195801 
	C1737.146118,1679.493042 1759.324341,1654.421875 1784.511841,1632.732300 
	C1806.242432,1614.019165 1820.008301,1591.083496 1831.823486,1565.811279 
	C1844.913452,1537.812378 1859.606934,1510.567261 1873.213989,1482.803589 
	C1878.310913,1472.403809 1881.545410,1461.059082 1886.969849,1450.858032 
	C1900.301514,1425.786499 1910.829590,1399.536011 1920.463745,1372.948730 
	C1925.766235,1358.315674 1929.209961,1343.005371 1933.402710,1327.975586 
	C1935.635498,1319.972290 1937.831299,1318.643066 1945.294800,1321.742554 
	C1950.175293,1323.769409 1954.971313,1326.051392 1959.633789,1328.540405 
	C1968.791504,1333.428833 1969.390259,1333.454102 1978.947998,1325.782837 
	C1970.180908,1312.411865 1958.353882,1302.206055 1944.226562,1293.246338 
	C1946.938843,1280.719604 1949.251221,1268.363525 1952.327393,1256.200806 
	C1957.805298,1234.541748 1962.372681,1212.819946 1962.524048,1190.315063 
	C1962.558960,1185.117554 1964.496826,1179.908569 1965.739380,1174.748291 
	C1968.622803,1162.775146 1971.522949,1150.804077 1974.622803,1138.885986 
	C1975.532349,1135.389038 1976.282715,1131.271973 1978.580811,1128.823608 
	C1985.526611,1121.423340 1993.196167,1114.702637 2001.291870,1107.858643 
	C2002.000000,1489.254028 2002.000000,1870.508179 2002.000000,2251.881104 
	C1335.551270,2251.881104 669.102417,2251.881104 2.000000,2251.881104 
	C2.000000,1901.958496 2.000000,1551.916504 1.999999,1200.937256 
z"/>
<path fill="#000000" opacity="1.000000" stroke="none" 
	d="
M537.855469,204.030563 
	C537.822571,204.909332 537.789673,205.788116 537.860352,207.812408 
	C539.997375,210.005692 542.030762,211.053452 544.037598,212.041748 
	C544.011108,211.982300 543.881592,211.968887 543.997375,212.592133 
	C544.636414,214.737030 545.159607,216.258698 545.682800,217.780380 
	C543.334595,222.529617 540.250366,227.081055 538.901794,232.098923 
	C538.028809,235.347061 539.693726,239.277267 540.318359,243.567535 
	C540.448059,243.473770 539.660767,244.536407 538.857544,244.548599 
	C528.213989,244.709885 526.905518,253.145096 524.411011,260.590240 
	C520.405823,272.544373 516.389832,284.495239 512.293335,296.418213 
	C510.238770,302.398102 506.020081,306.782654 500.529724,309.458954 
	C483.760956,317.632996 470.378448,329.946564 457.403503,343.007172 
	C449.700226,350.761322 441.048828,357.571869 432.855408,364.842346 
	C431.364685,366.165131 429.846924,367.523071 428.646454,369.097229 
	C415.656647,386.130127 400.636261,401.041382 383.689026,414.207306 
	C376.380981,419.884796 370.027618,426.933563 363.858337,433.906006 
	C349.093872,450.592651 334.656250,467.569641 320.167908,484.498901 
	C313.730286,492.021118 307.654083,499.856659 301.116028,507.287964 
	C292.984467,516.530457 283.268646,522.931946 270.587219,524.608032 
	C252.706192,526.971436 235.343552,531.417603 219.063187,539.530029 
	C207.304703,545.389221 198.658554,553.941895 194.018982,566.461365 
	C192.074570,571.708191 189.156448,576.588684 187.090683,581.798157 
	C185.765625,585.139648 184.830460,588.728333 184.339813,592.291565 
	C182.488312,605.737488 184.563141,618.765869 188.616043,631.644287 
	C191.205566,639.872742 193.904953,648.215820 195.006622,656.708374 
	C195.690033,661.976746 195.139999,668.837158 192.213730,672.842346 
	C186.206207,681.064758 184.471405,690.374756 182.354218,699.615173 
	C180.235840,708.860840 176.836609,717.258850 171.564148,725.148132 
	C165.667984,733.970703 159.435867,742.731018 157.228287,753.472412 
	C157.098114,754.105774 156.805023,754.783752 156.387558,755.268616 
	C143.494019,770.242188 138.486420,789.272217 129.924286,806.474915 
	C127.871002,810.600220 124.736504,814.178711 122.572411,818.259583 
	C118.854294,825.270874 115.126762,832.320862 112.084465,839.637878 
	C105.448235,855.598633 99.044960,871.664185 92.976128,887.848022 
	C91.154930,892.704590 90.539619,898.061584 89.760986,903.247681 
	C88.932396,908.766418 89.328377,914.567688 87.846779,919.870422 
	C84.107895,933.252014 79.598808,946.417908 75.428482,959.679688 
	C72.266121,969.736145 67.072624,978.754700 59.336914,985.742981 
	C51.341755,992.965637 48.965904,1002.439087 46.064934,1012.002869 
	C38.719666,1036.218262 37.558491,1061.027466 38.510986,1087.479492 
	C38.755432,1089.562866 39.126297,1090.086426 39.704910,1090.462769 
	C40.948082,1098.259277 41.263535,1106.349365 43.620399,1113.793335 
	C49.160507,1131.290894 42.957535,1145.380493 30.837166,1156.738281 
	C22.541138,1164.512207 15.187392,1172.704712 8.782186,1181.962646 
	C7.317119,1184.080200 5.137693,1185.703491 2.643517,1187.777100 
	C2.000000,792.748108 2.000000,397.496155 2.000000,2.122119 
	C668.447937,2.122119 1334.895874,2.122119 2002.000000,2.122119 
	C2002.000000,351.374847 2002.000000,700.750122 2002.000000,1051.062744 
	C2000.836182,1051.506104 1999.277466,1051.332397 1998.574097,1050.465088 
	C1994.664307,1045.643188 1990.964844,1040.650635 1987.187866,1035.720825 
	C1979.023071,1025.064453 1968.784424,1015.880981 1963.497803,1003.188904 
	C1961.750366,998.994019 1960.932373,994.411987 1959.638916,988.764282 
	C1959.422974,986.909119 1959.116943,986.377625 1958.670044,985.927124 
	C1958.881348,965.224060 1956.788208,944.845093 1952.296265,924.546448 
	C1949.226685,910.675720 1948.176147,896.339661 1946.600586,882.169617 
	C1946.207642,878.635742 1947.097168,874.909668 1947.703857,871.323730 
	C1949.430298,861.119934 1946.820801,852.385803 1940.016602,844.504822 
	C1937.075195,841.098083 1934.562134,836.889893 1933.212769,832.616821 
	C1928.010742,816.142212 1923.571289,799.427856 1918.445923,782.927673 
	C1911.843750,761.672974 1905.164795,740.448914 1895.940552,720.098083 
	C1890.869873,708.911133 1886.212524,697.465698 1882.380127,685.804382 
	C1875.801514,665.785889 1867.181030,646.820618 1856.680786,628.562073 
	C1849.561768,616.183411 1843.783813,603.039795 1836.887451,590.524109 
	C1833.703613,584.746094 1828.839600,579.909424 1825.493896,574.202515 
	C1810.191772,548.101440 1795.534546,521.669250 1785.147827,493.097015 
	C1781.943115,484.281555 1777.115479,476.408356 1770.310547,469.682404 
	C1759.654663,459.149963 1749.343628,448.266998 1738.949707,437.471771 
	C1732.835571,431.121490 1725.879639,426.296478 1717.334961,423.632233 
	C1714.322632,422.692963 1711.247925,420.741760 1709.104004,418.419617 
	C1691.111572,398.930939 1669.637451,383.865723 1647.769409,369.227081 
	C1644.549072,367.071350 1640.973511,364.114014 1639.673340,360.719055 
	C1637.454712,354.925873 1633.328003,351.878418 1628.537109,348.814545 
	C1624.068359,345.956757 1619.887207,342.605560 1615.793701,339.213013 
	C1604.537720,329.884308 1593.092163,320.751129 1582.301270,310.905243 
	C1573.532959,302.904785 1562.198364,299.467834 1552.774780,292.715088 
	C1543.866821,286.331696 1534.702148,280.292847 1525.484253,274.360565 
	C1519.940308,270.792694 1514.425171,266.671448 1508.287476,264.641418 
	C1495.717773,260.484009 1485.043213,253.265701 1474.127319,246.245819 
	C1467.187744,241.783081 1459.921875,237.831436 1452.890259,233.507416 
	C1447.263794,230.047516 1441.499634,226.724976 1436.271851,222.720947 
	C1424.044922,213.356201 1409.991211,208.705597 1395.186768,205.701233 
	C1388.730835,204.391083 1382.001831,203.732407 1375.927368,201.397675 
	C1366.684326,197.845108 1357.999268,192.867111 1348.877197,188.961304 
	C1345.318481,187.437576 1341.233154,186.553253 1337.361572,186.459778 
	C1325.056274,186.162674 1313.918945,182.502350 1303.159668,176.716095 
	C1298.934570,174.443848 1293.935425,173.039566 1289.145874,172.492401 
	C1273.272339,170.679047 1257.868652,167.338593 1243.005859,161.333069 
	C1238.817871,159.640869 1234.074463,158.473724 1229.598511,158.513077 
	C1218.819702,158.607819 1208.439941,157.083557 1198.093140,154.117615 
	C1192.746948,152.585114 1187.017822,152.287720 1181.432983,151.710098 
	C1171.862183,150.720230 1162.267456,149.960587 1152.685913,149.070847 
	C1151.367920,148.948456 1150.046265,148.354675 1148.762207,148.452133 
	C1130.687622,149.824005 1113.027100,145.937408 1095.194336,144.282806 
	C1092.895020,144.069489 1090.555298,143.687820 1088.366821,142.976547 
	C1069.215454,136.752182 1049.587524,133.823761 1029.462769,134.354218 
	C1014.846191,134.739456 1000.232300,135.234543 985.619751,135.752960 
	C983.975403,135.811295 982.076599,135.902390 980.755737,136.720749 
	C970.928650,142.809662 960.387756,140.346832 949.829529,140.134720 
	C935.234924,139.841553 920.615723,141.138458 906.002197,141.292191 
	C896.430420,141.392899 886.822266,141.008911 877.282654,140.214722 
	C870.284668,139.632141 864.912231,142.444397 860.389282,146.985123 
	C854.590149,152.807022 847.906555,156.808640 839.914490,158.283905 
	C820.935364,161.787262 802.399719,166.211761 784.280823,173.479797 
	C769.294983,179.491058 752.997803,182.625107 737.023926,185.691437 
	C711.401306,190.609924 687.165649,199.523895 663.169312,209.281357 
	C655.725159,212.308319 648.666199,212.919800 640.861572,210.559341 
	C631.006897,207.578888 620.931091,205.170319 610.808167,203.276413 
	C598.214172,200.920181 585.731262,203.353333 573.339783,205.654495 
	C570.471497,206.187149 567.684326,207.155960 564.304932,208.074966 
	C561.642517,201.466354 559.492371,194.904572 551.585693,193.918304 
	C546.961121,193.341431 542.984924,194.244095 539.399109,199.109680 
	C538.402466,201.335388 538.128967,202.682983 537.855469,204.030563 
z"/>
<path fill="#000000" opacity="1.000000" stroke="none" 
	d="
M2002.000000,1091.083862 
	C1996.178833,1084.869141 1995.851562,1077.342773 2001.188843,1069.733398 
	C2002.000000,1076.722534 2002.000000,1083.445190 2002.000000,1091.083862 
z"/>
<path fill="#000000" opacity="1.000000" stroke="none" 
	d="
M790.029358,560.969116 
	C779.459534,558.399475 770.869629,552.222900 762.751282,545.442444 
	C760.658752,543.694763 759.632629,540.514832 758.474365,537.838074 
	C756.394470,533.031311 754.463440,528.151245 752.691345,523.222290 
	C749.888977,515.427734 746.711487,507.704620 744.743225,499.693176 
	C743.084961,492.943787 746.263306,489.400543 753.032104,487.579254 
	C756.851135,486.551697 761.049622,485.639099 764.073975,483.349487 
	C766.656067,481.394623 769.809387,477.091034 769.244995,474.616730 
	C766.703552,463.474335 771.705444,454.447601 775.872681,445.114655 
	C781.022034,433.582092 786.139282,422.019897 791.812134,410.743011 
	C794.481445,405.436920 798.258057,400.649658 801.831055,395.849152 
	C804.434998,392.350494 807.663879,389.903442 812.442810,389.166199 
	C819.202637,388.123291 824.020386,383.762817 829.004761,378.952393 
	C841.833191,366.571503 850.277161,351.912262 856.136841,335.277405 
	C859.070984,326.947693 863.446045,319.125519 867.719482,309.884338 
	C872.651123,312.847443 876.364563,314.779602 879.753479,317.171600 
	C889.419250,323.994019 894.545593,323.496368 902.192017,314.988159 
	C905.067749,311.788269 908.586670,309.156921 911.387024,305.900604 
	C919.830627,296.081879 928.882996,286.644806 936.179260,276.016357 
	C945.818665,261.974792 958.307434,254.583298 975.188171,253.584259 
	C984.771973,253.017059 994.270813,250.930634 1003.854004,250.453186 
	C1017.935425,249.751602 1028.486084,255.099899 1035.698975,268.257904 
	C1040.735962,277.446503 1047.866943,285.733429 1055.142822,293.397766 
	C1070.899292,309.995667 1088.705811,308.932556 1104.032104,296.161682 
	C1113.480225,288.288849 1122.090576,279.419342 1131.324585,271.277954 
	C1139.870239,263.743530 1149.791260,259.568085 1161.419434,261.555359 
	C1171.024170,263.196808 1173.914062,267.003693 1173.464722,276.496216 
	C1173.388916,278.096985 1172.986938,279.682281 1172.785522,280.959442 
	C1186.630981,292.717590 1200.026489,304.156799 1213.493774,315.510864 
	C1224.425659,324.727448 1235.734619,333.518555 1246.354004,343.078705 
	C1261.481079,356.697113 1279.456665,365.241089 1297.718628,373.409698 
	C1302.276978,375.448669 1306.913208,377.313324 1311.481934,379.330078 
	C1324.310059,384.992950 1337.482056,386.843628 1351.361938,383.841583 
	C1367.224121,380.410889 1382.965332,381.246796 1398.692993,385.470459 
	C1404.046509,386.908203 1409.899658,386.426117 1415.507935,386.987305 
	C1431.056641,388.543213 1444.697021,395.600677 1458.768433,401.663544 
	C1483.391113,412.272461 1505.717285,426.300446 1526.363892,443.359375 
	C1532.956299,448.806183 1541.099976,452.346680 1548.400146,456.970642 
	C1574.753540,473.662964 1597.991943,493.823914 1617.180542,518.564819 
	C1621.225586,523.780334 1626.152100,528.307861 1630.615601,533.204163 
	C1636.889282,540.086182 1643.346680,546.819641 1649.295044,553.974548 
	C1657.377563,563.696350 1665.130249,573.696716 1672.867188,583.699402 
	C1676.122803,587.908386 1679.589111,592.128784 1681.903442,596.860657 
	C1690.871826,615.197510 1704.197021,630.742126 1714.328613,648.312622 
	C1718.147095,654.934814 1722.494263,661.318604 1725.598755,668.259094 
	C1727.245850,671.941284 1727.486938,676.665588 1727.027466,680.769958 
	C1726.479614,685.663696 1724.254395,690.343445 1723.192261,695.211121 
	C1720.787354,706.232056 1718.036987,717.229309 1716.542847,728.385620 
	C1714.081177,746.766235 1721.473022,761.639771 1735.220459,773.412781 
	C1745.139160,781.907104 1756.156494,788.881592 1768.619263,793.034119 
	C1780.660034,797.046082 1786.049683,805.060730 1786.538940,817.644348 
	C1786.805664,824.507690 1788.781982,831.379639 1790.572510,838.091553 
	C1793.484253,849.006226 1796.749390,859.832092 1800.102661,870.621765 
	C1803.158081,880.452759 1806.736694,890.123413 1809.690308,899.982910 
	C1811.782715,906.967468 1813.354858,914.118835 1814.919556,921.248291 
	C1818.414062,937.170715 1822.662231,952.998901 1824.927734,969.101196 
	C1827.561157,987.819946 1828.636108,1006.774353 1829.964233,1025.656250 
	C1831.643311,1049.526367 1833.613525,1073.412354 1834.088623,1097.318726 
	C1834.424805,1114.228760 1832.487793,1131.183960 1831.163940,1149.402710 
	C1830.440918,1151.222534 1830.293213,1151.802979 1830.319458,1152.427612 
	C1826.973267,1176.760986 1825.044067,1201.279907 1818.558960,1225.160645 
	C1813.332397,1244.406860 1809.126587,1263.939331 1804.801392,1283.418823 
	C1800.666260,1302.042236 1794.810913,1319.965210 1785.123779,1336.502197 
	C1784.623535,1337.356201 1784.139648,1338.252563 1783.849121,1339.191528 
	C1778.646851,1356.000977 1773.540405,1372.840576 1768.251343,1389.622559 
	C1766.960205,1393.719360 1765.358154,1397.766235 1763.447876,1401.611938 
	C1748.342773,1432.020996 1732.761230,1462.199585 1718.072021,1492.807129 
	C1707.722656,1514.371826 1695.407959,1535.004517 1682.015015,1554.416382 
	C1664.532227,1579.755981 1647.861084,1606.064453 1625.719482,1628.070068 
	C1618.934082,1634.814087 1614.001465,1643.380737 1607.740234,1650.702271 
	C1591.740356,1669.411987 1572.325806,1684.456177 1553.231934,1699.709229 
	C1540.271606,1710.062378 1525.477417,1718.144531 1512.684082,1728.676514 
	C1489.182251,1748.023804 1462.323242,1762.298218 1437.801270,1780.045166 
	C1417.782959,1794.532471 1396.424438,1806.814819 1374.386353,1817.859497 
	C1365.827271,1822.148926 1356.428589,1824.731201 1347.576660,1828.479248 
	C1341.776123,1830.935303 1336.141968,1833.861938 1330.663452,1836.981689 
	C1322.757446,1841.483765 1314.304077,1842.814575 1305.585083,1841.217163 
	C1296.832397,1839.613647 1288.409302,1840.391724 1279.930054,1842.542236 
	C1257.678711,1848.185547 1235.319824,1853.420288 1213.924194,1862.002441 
	C1201.816895,1866.858765 1189.292603,1866.436768 1176.601929,1864.611084 
	C1171.845459,1863.926758 1169.118164,1861.671875 1168.372070,1857.385010 
	C1167.354736,1851.540649 1166.663574,1845.598755 1166.396851,1839.673096 
	C1165.854980,1827.639404 1160.372803,1822.521484 1148.743774,1823.735107 
	C1140.497559,1824.595703 1135.775024,1830.573975 1136.745239,1838.810669 
	C1137.167603,1842.395264 1137.422607,1845.999390 1137.677490,1848.768433 
	C1132.869263,1851.976196 1128.800781,1854.569458 1124.861938,1857.346680 
	C1119.147461,1861.375732 1111.952881,1859.881226 1106.434082,1853.351318 
	C1102.145752,1848.277466 1097.951782,1843.121582 1093.567383,1838.132690 
	C1092.287842,1836.676636 1090.657837,1835.309814 1088.908447,1834.532959 
	C1085.715332,1833.115356 1083.143311,1833.777222 1081.910156,1837.583252 
	C1080.736694,1841.204956 1079.260376,1844.728638 1077.624634,1849.072144 
	C1072.880005,1846.879028 1069.331055,1845.272949 1065.811768,1843.604492 
	C1059.018066,1840.384033 1054.800781,1841.607422 1050.958374,1847.944946 
	C1049.722534,1849.983276 1048.455078,1852.002563 1045.333862,1853.590454 
	C1044.637817,1850.162720 1044.168823,1846.669434 1043.202271,1843.319702 
	C1040.473877,1833.863159 1033.514893,1831.663330 1025.845947,1837.721313 
	C1024.020142,1839.163696 1022.151306,1840.603394 1020.572021,1842.296143 
	C1016.915100,1846.215942 1012.527100,1846.548706 1007.703857,1845.375244 
	C998.979248,1843.252686 990.279663,1841.011719 981.506775,1839.110229 
	C977.640259,1838.272095 973.459167,1837.225830 969.702576,1837.883301 
	C961.698120,1839.284546 954.145752,1839.716797 946.437988,1836.260254 
	C942.325500,1834.415894 938.599731,1837.002563 935.953186,1840.239136 
	C930.431091,1846.992676 923.938293,1846.899170 916.143494,1844.676270 
	C905.941406,1841.767212 895.442749,1839.804688 884.982239,1837.936279 
	C880.129700,1837.069336 875.798828,1838.378906 871.004028,1841.061646 
	C861.254028,1846.516479 850.601990,1846.180786 840.707703,1840.057739 
	C837.662964,1838.173340 834.729431,1836.109497 831.678345,1834.083618 
	C830.622986,1835.403809 829.670776,1836.075439 829.470581,1836.924561 
	C827.142212,1846.799194 820.304688,1848.715454 811.382935,1847.751709 
	C807.877441,1847.373169 804.947144,1847.024780 803.142029,1843.453003 
	C801.526978,1840.257324 798.179993,1839.442871 795.404602,1840.939087 
	C789.437500,1844.156250 783.955627,1841.255615 778.165222,1840.990112 
	C763.450012,1840.315430 750.510315,1833.992798 736.804565,1830.136597 
	C713.876587,1823.685669 693.516907,1811.297974 671.787415,1802.077026 
	C662.294861,1798.048828 652.322266,1794.511108 643.882446,1788.805786 
	C633.440674,1781.746948 621.716858,1777.125732 611.373901,1770.422363 
	C590.788330,1757.080688 570.387085,1743.374634 552.395752,1726.236816 
	C529.767090,1704.681396 506.469604,1683.794800 478.361267,1669.033569 
	C470.946747,1665.139771 465.196228,1658.099487 458.627747,1652.567993 
	C439.567139,1636.516357 419.137360,1621.985718 404.288055,1601.380981 
	C396.712524,1590.869263 388.021454,1581.167603 380.281219,1570.767212 
	C367.024506,1552.954712 353.617432,1535.219116 341.206024,1516.822144 
	C328.745209,1498.351807 316.892670,1479.419067 305.766541,1460.116577 
	C296.491760,1444.025757 286.678650,1428.071167 281.148041,1410.078491 
	C280.760498,1408.817505 280.126038,1407.606567 279.452179,1406.463257 
	C258.916534,1371.625366 249.426514,1332.710815 237.994873,1294.500244 
	C235.334412,1285.607544 231.751266,1276.990356 229.108566,1268.093140 
	C227.509537,1262.709717 226.927338,1257.026855 225.845062,1251.487061 
	C222.728668,1235.535156 219.422531,1219.617798 216.539383,1203.624146 
	C215.306030,1196.782349 214.702682,1189.801270 214.222336,1182.855103 
	C213.236481,1168.598877 212.526657,1154.323730 211.786011,1138.813721 
	C211.834854,1137.071777 211.619171,1136.670166 211.221756,1136.366333 
	C210.979050,1135.406128 210.562805,1134.453735 210.519073,1133.484619 
	C209.502792,1110.962524 208.526901,1088.438599 207.439590,1064.520508 
	C207.181976,1062.471558 206.830688,1061.950195 206.281754,1061.561890 
	C207.463806,1042.991699 208.799744,1024.429688 209.765900,1005.848206 
	C210.284378,995.876831 210.407776,985.869324 210.280228,975.883606 
	C210.091385,961.097900 213.053223,947.155396 217.391586,932.922363 
	C224.012085,911.202515 232.236115,890.189941 241.208130,869.466187 
	C245.238220,860.157410 251.718307,851.915039 257.029175,843.153870 
	C268.755371,823.809570 281.031097,804.768005 291.989441,784.997009 
	C303.597015,764.054688 319.116241,748.372620 341.949066,739.956116 
	C354.398315,735.367065 367.076385,730.522888 378.266663,723.566467 
	C406.585632,705.962280 423.796570,680.877502 427.831055,646.821960 
	C431.103058,619.202759 430.892883,591.642456 429.462494,564.063965 
	C428.864624,552.537354 425.647369,541.147278 423.635040,529.692749 
	C423.176666,527.083496 422.502075,524.475098 422.395538,521.847351 
	C421.877380,509.065063 428.599884,501.523010 441.531281,501.839905 
	C452.439728,502.107269 463.313446,503.820465 474.200714,504.912201 
	C485.428711,506.038086 496.632324,507.726715 507.886810,508.187592 
	C521.861450,508.759827 535.881470,508.121216 549.873962,508.401672 
	C558.067139,508.565887 565.534363,506.850922 573.027954,503.469269 
	C580.253784,500.208374 588.007080,498.002350 595.677734,495.868713 
	C606.620728,492.824860 617.533997,493.859894 627.945740,498.147125 
	C635.750183,501.360779 642.456421,500.603394 649.579834,495.936188 
	C660.929077,488.500336 683.065186,489.935608 693.954285,498.088318 
	C696.348633,499.880951 698.389709,502.353546 701.027466,503.578094 
	C714.874817,510.006531 723.323730,520.995850 728.703369,534.882019 
	C732.331665,544.247437 739.336365,550.811829 747.393860,556.429871 
	C749.966675,558.223755 752.347290,560.293274 754.815857,562.236633 
	C754.610962,562.926819 754.406128,563.616943 754.201233,564.307129 
	C739.790466,564.307129 725.379639,564.307129 710.334656,564.307129 
	C710.334656,940.015930 710.334656,1314.434570 710.334656,1689.589355 
	C768.509460,1689.589355 826.306763,1689.589355 885.287537,1689.589355 
	C885.416992,1684.859619 885.649902,1680.312988 885.650269,1675.766357 
	C885.668213,1464.128418 885.664978,1252.490479 885.671997,1040.852539 
	C885.672119,1035.854370 885.760681,1030.856323 886.342285,1025.013550 
	C886.876465,1024.168945 887.801758,1024.314331 887.801758,1024.314331 
	C900.030334,1054.555664 912.174255,1084.831421 924.505615,1115.030762 
	C947.287415,1170.822876 970.190735,1226.565308 993.022339,1282.337158 
	C1031.621704,1376.625610 1070.218506,1470.915039 1108.788086,1565.215698 
	C1124.795410,1604.352905 1140.720215,1643.523926 1156.719482,1682.664551 
	C1157.711792,1685.092041 1159.027222,1687.387329 1160.205200,1689.770264 
	C1205.800415,1689.770264 1251.014282,1689.770264 1296.951172,1689.770264 
	C1296.951172,1314.772217 1296.951172,940.328857 1296.951172,565.988586 
	C1289.329712,564.004883 1141.327393,563.398804 1126.955078,565.355469 
	C1125.571289,588.298767 1126.538086,611.496338 1126.364258,634.658264 
	C1126.186646,658.322632 1126.324829,681.989380 1126.324829,705.655090 
	C1126.324829,728.987488 1126.324829,752.319885 1126.324829,775.652283 
	C1126.324829,798.984680 1126.324829,822.317139 1126.324829,845.649536 
	C1126.324829,869.315247 1126.324829,892.980957 1126.324829,916.646667 
	C1126.324829,939.979065 1126.324829,963.311462 1126.324829,986.643860 
	C1126.324829,1009.976257 1126.324829,1033.308716 1126.324829,1056.641113 
	C1126.324829,1080.306885 1126.324829,1103.972534 1126.324829,1127.638306 
	C1126.324829,1150.767456 1126.324829,1173.896729 1126.324829,1197.025879 
	C1125.510620,1197.186035 1124.696411,1197.346191 1123.882202,1197.506348 
	C1033.985840,986.703125 944.089539,775.899963 853.866516,564.330750 
	C834.324829,564.330750 815.067932,564.330750 794.807983,563.750732 
	C793.862549,562.776367 793.920288,562.382080 794.665283,561.789062 
	C800.840332,560.294861 803.383606,556.589966 804.797485,551.285583 
	C810.863098,528.528748 817.256653,505.859375 823.348267,483.109314 
	C824.166138,480.054871 823.944946,476.722137 824.175537,473.880157 
	C819.356323,471.182037 816.448425,472.936890 813.688477,475.723907 
	C808.343140,481.121643 805.410583,487.682434 804.209656,495.077759 
	C803.412537,499.986633 802.889526,504.942413 802.007812,509.834717 
	C798.898987,527.084045 797.857666,544.824280 790.029358,560.969116 
z"/>
<path fill="#853978" opacity="1.000000" stroke="none" 
	d="
M790.005737,561.000366 
	C797.857666,544.824280 798.898987,527.084045 802.007812,509.834717 
	C802.889526,504.942413 803.412537,499.986633 804.209656,495.077759 
	C805.410583,487.682434 808.343140,481.121643 813.688477,475.723907 
	C816.448425,472.936890 819.356323,471.182037 824.175537,473.880157 
	C823.944946,476.722137 824.166138,480.054871 823.348267,483.109314 
	C817.256653,505.859375 810.863098,528.528748 804.797485,551.285583 
	C803.383606,556.589966 800.840332,560.294861 794.008972,561.638062 
	C791.790649,561.485840 790.915833,561.285828 790.041016,561.085815 
	C790.041016,561.085815 789.982178,561.031616 790.005737,561.000366 
z"/>
<path fill="#190A17" opacity="1.000000" stroke="none" 
	d="
M574.781128,220.297974 
	C571.474731,219.934296 568.806580,219.478989 564.167664,218.687393 
	C570.467773,213.735718 574.819031,216.834686 579.389404,218.028336 
	C578.066040,218.754333 576.742737,219.480347 574.781128,220.297974 
z"/>
<path fill="#080407" opacity="1.000000" stroke="none" 
	d="
M542.283081,206.257599 
	C545.744812,206.036057 549.206543,205.814514 552.970398,205.573639 
	C554.941711,209.851624 555.168518,212.522766 548.254028,212.255280 
	C545.882080,212.132889 544.881836,212.050888 543.881592,211.968887 
	C543.881592,211.968887 544.011108,211.982300 543.839844,211.444275 
	C543.206787,209.356720 542.744934,207.807159 542.283081,206.257599 
z"/>
<path fill="#56244A" opacity="1.000000" stroke="none" 
	d="
M541.744873,206.489105 
	C542.744934,207.807159 543.206787,209.356720 543.866394,211.503723 
	C542.030762,211.053452 539.997375,210.005692 537.952759,208.466324 
	C539.029907,207.556671 540.118225,207.138641 541.744873,206.489105 
z"/>
<path fill="#56244A" opacity="1.000000" stroke="none" 
	d="
M543.997375,212.592133 
	C544.881836,212.050888 545.882080,212.132889 547.614990,212.401962 
	C547.816711,214.104538 547.285767,215.620056 546.218811,217.457977 
	C545.159607,216.258698 544.636414,214.737030 543.997375,212.592133 
z"/>
<path fill="#672C5D" opacity="1.000000" stroke="none" 
	d="
M790.188599,561.555298 
	C790.915833,561.285828 791.790649,561.485840 793.321777,561.836792 
	C793.920288,562.382080 793.862549,562.776367 793.866211,563.765259 
	C792.730469,563.581543 791.533386,562.803162 790.188599,561.555298 
z"/>
<path fill="#682D5F" opacity="1.000000" stroke="none" 
	d="
M887.780762,1023.953125 
	C887.801758,1024.314331 886.876465,1024.168945 886.417114,1024.077759 
	C885.937378,1023.456299 885.916870,1022.925903 885.896362,1022.395569 
	C886.517517,1022.794312 887.138672,1023.193115 887.780762,1023.953125 
z"/>
<path fill="#56244A" opacity="1.000000" stroke="none" 
	d="
M538.154175,203.510986 
	C538.128967,202.682983 538.402466,201.335388 539.056824,199.769806 
	C539.109497,200.698349 538.781189,201.844879 538.154175,203.510986 
z"/>
<path fill="#240E20" opacity="1.000000" stroke="none" 
	d="
M1958.625488,986.410522 
	C1959.116943,986.377625 1959.422974,986.909119 1959.633179,987.982117 
	C1959.096436,988.079346 1958.730713,987.563171 1958.625488,986.410522 
z"/>
<path fill="#672C5D" opacity="1.000000" stroke="none" 
	d="
M206.316422,1062.026123 
	C206.830688,1061.950195 207.181976,1062.471558 207.303391,1063.604004 
	C206.807922,1063.641846 206.501236,1063.111450 206.316422,1062.026123 
z"/>
<path fill="#672C5D" opacity="1.000000" stroke="none" 
	d="
M39.655727,1089.994629 
	C39.126297,1090.086426 38.755432,1089.562866 38.630772,1088.403931 
	C39.125275,1088.369141 39.437710,1088.906006 39.655727,1089.994629 
z"/>
<path fill="#240E20" opacity="1.000000" stroke="none" 
	d="
M211.181503,1136.712891 
	C211.619171,1136.670166 211.834854,1137.071777 211.830872,1137.927002 
	C211.403412,1137.966431 211.186188,1137.558716 211.181503,1136.712891 
z"/>
<path fill="#240E20" opacity="1.000000" stroke="none" 
	d="
M1830.672363,1152.108398 
	C1830.293213,1151.802979 1830.440918,1151.222534 1831.043335,1150.329834 
	C1831.543335,1150.631104 1831.443604,1151.236450 1830.672363,1152.108398 
z"/>
</svg>